<?xml version="1.0" encoding="iso-8859-1"?>
<!-- Generator: Adobe Illustrator 19.0.0, SVG Export Plug-In . SVG Version: 6.00 Build 0)  -->
<svg xmlns="http://www.w3.org/2000/svg" xmlns:xlink="http://www.w3.org/1999/xlink" version="1.1" id="Capa_1" x="0px" y="0px" viewBox="0 0 460 460" style="enable-background:new 0 0 460 460;" xml:space="preserve" width="512" height="512">
<g id="XMLID_1600_">
	<path id="XMLID_1605_" style="fill:#694020;" d="M392.635,392.635c-89.821,89.821-235.449,89.821-325.269,0   s-89.821-235.449,0-325.269s235.449-89.821,325.269,0S482.455,302.814,392.635,392.635z"/>
	<path id="XMLID_1603_" style="fill:#9C5C2B;" d="M371.673,301.673c-64.436,64.437-168.909,64.437-233.345,0   s-64.437-168.909,0-233.345s168.909-64.437,233.345,0S436.109,237.236,371.673,301.673z"/>
	<path id="XMLID_1601_" style="fill:#272525;" d="M425.663,222.76c-49.129,3.661-95.574,23.771-131.861,56.9l70.549,70.549   c3.905,3.905,3.905,10.237,0,14.143c-1.953,1.953-4.512,2.929-7.071,2.929s-5.119-0.976-7.071-2.929l-70.549-70.549   c-33.129,36.287-53.239,82.732-56.9,131.861c-0.391,5.254-4.777,9.257-9.961,9.257c-0.25,0-0.5-0.009-0.754-0.028   c-5.507-0.41-9.64-5.208-9.229-10.715c4.016-53.904,26.186-104.842,62.693-144.526L230,244.143L109.792,364.351   c-1.953,1.953-4.512,2.929-7.071,2.929s-5.119-0.976-7.071-2.929c-3.905-3.905-3.905-10.237,0-14.143L215.857,230l-35.508-35.508   c-39.684,36.506-90.621,58.676-144.526,62.693c-0.253,0.019-0.504,0.028-0.754,0.028c-5.185,0-9.57-4.002-9.961-9.257   c-0.411-5.508,3.722-10.305,9.229-10.715c49.129-3.661,95.574-23.771,131.861-56.9l-70.549-70.549   c-3.905-3.905-3.905-10.237,0-14.143c3.905-3.905,10.237-3.905,14.143,0l70.549,70.549c33.129-36.287,53.239-82.732,56.9-131.861   c0.41-5.508,5.206-9.646,10.715-9.229c5.507,0.41,9.64,5.208,9.229,10.715c-4.016,53.904-26.186,104.842-62.693,144.526   L230,215.857L350.208,95.649c3.905-3.905,10.237-3.905,14.143,0c3.905,3.905,3.905,10.237,0,14.143L244.143,230l35.508,35.508   c39.684-36.506,90.622-58.676,144.526-62.693c5.514-0.408,10.306,3.721,10.715,9.229C435.303,217.552,431.17,222.35,425.663,222.76   z"/>
</g>















</svg>
